<svg width="18" height="18" viewBox="0 0 18 18" fill="none" xmlns="http://www.w3.org/2000/svg">
<path d="M9 10.5C8.7875 10.5 8.60938 10.4281 8.46563 10.2844C8.32188 10.1406 8.25 9.9625 8.25 9.75C8.25 9.5375 8.32188 9.35938 8.46563 9.21563C8.60938 9.07188 8.7875 9 9 9C9.2125 9 9.39062 9.07188 9.53437 9.21563C9.67812 9.35938 9.75 9.5375 9.75 9.75C9.75 9.9625 9.67812 10.1406 9.53437 10.2844C9.39062 10.4281 9.2125 10.5 9 10.5ZM6 10.5C5.7875 10.5 5.60938 10.4281 5.46562 10.2844C5.32187 10.1406 5.25 9.9625 5.25 9.75C5.25 9.5375 5.32187 9.35938 5.46562 9.21563C5.60938 9.07188 5.7875 9 6 9C6.2125 9 6.39062 9.07188 6.53437 9.21563C6.67812 9.35938 6.75 9.5375 6.75 9.75C6.75 9.9625 6.67812 10.1406 6.53437 10.2844C6.39062 10.4281 6.2125 10.5 6 10.5ZM12 10.5C11.7875 10.5 11.6094 10.4281 11.4656 10.2844C11.3219 10.1406 11.25 9.9625 11.25 9.75C11.25 9.5375 11.3219 9.35938 11.4656 9.21563C11.6094 9.07188 11.7875 9 12 9C12.2125 9 12.3906 9.07188 12.5344 9.21563C12.6781 9.35938 12.75 9.5375 12.75 9.75C12.75 9.9625 12.6781 10.1406 12.5344 10.2844C12.3906 10.4281 12.2125 10.5 12 10.5ZM9 13.5C8.7875 13.5 8.60938 13.4281 8.46563 13.2844C8.32188 13.1406 8.25 12.9625 8.25 12.75C8.25 12.5375 8.32188 12.3594 8.46563 12.2156C8.60938 12.0719 8.7875 12 9 12C9.2125 12 9.39062 12.0719 9.53437 12.2156C9.67812 12.3594 9.75 12.5375 9.75 12.75C9.75 12.9625 9.67812 13.1406 9.53437 13.2844C9.39062 13.4281 9.2125 13.5 9 13.5ZM6 13.5C5.7875 13.5 5.60938 13.4281 5.46562 13.2844C5.32187 13.1406 5.25 12.9625 5.25 12.75C5.25 12.5375 5.32187 12.3594 5.46562 12.2156C5.60938 12.0719 5.7875 12 6 12C6.2125 12 6.39062 12.0719 6.53437 12.2156C6.67812 12.3594 6.75 12.5375 6.75 12.75C6.75 12.9625 6.67812 13.1406 6.53437 13.2844C6.39062 13.4281 6.2125 13.5 6 13.5ZM12 13.5C11.7875 13.5 11.6094 13.4281 11.4656 13.2844C11.3219 13.1406 11.25 12.9625 11.25 12.75C11.25 12.5375 11.3219 12.3594 11.4656 12.2156C11.6094 12.0719 11.7875 12 12 12C12.2125 12 12.3906 12.0719 12.5344 12.2156C12.6781 12.3594 12.75 12.5375 12.75 12.75C12.75 12.9625 12.6781 13.1406 12.5344 13.2844C12.3906 13.4281 12.2125 13.5 12 13.5ZM3.375 16.5C3.075 16.5 2.8125 16.3875 2.5875 16.1625C2.3625 15.9375 2.25 15.675 2.25 15.375V3.75C2.25 3.45 2.3625 3.1875 2.5875 2.9625C2.8125 2.7375 3.075 2.625 3.375 2.625H4.59375V1.5H5.8125V2.625H12.1875V1.5H13.4062V2.625H14.625C14.925 2.625 15.1875 2.7375 15.4125 2.9625C15.6375 3.1875 15.75 3.45 15.75 3.75V15.375C15.75 15.675 15.6375 15.9375 15.4125 16.1625C15.1875 16.3875 14.925 16.5 14.625 16.5H3.375ZM3.375 15.375H14.625V7.3125H3.375V15.375ZM3.375 6.1875H14.625V3.75H3.375V6.1875ZM3.375 6.1875V3.75V6.1875Z" fill="#828282"/>
</svg>
