<svg width="18" height="18" viewBox="0 0 18 18" fill="none" xmlns="http://www.w3.org/2000/svg">
<rect width="18" height="18" rx="4" fill="#F0F2F4"/>
<path fill-rule="evenodd" clip-rule="evenodd" d="M7.79027 12.3462C7.8732 12.3107 7.94829 12.2581 8.01571 12.1907L13.59 6.60189C13.7302 6.4724 13.8002 6.30567 13.8002 6.11086C13.8002 5.9153 13.7298 5.74514 13.5917 5.60698C13.4542 5.46956 13.2868 5.39844 13.095 5.39844C12.9039 5.39844 12.74 5.46924 12.6113 5.60863L7.52646 10.6792L5.40198 8.55468C5.26456 8.41726 5.09711 8.34614 4.90536 8.34614C4.7136 8.34614 4.54615 8.41726 4.40873 8.55468C4.27057 8.69284 4.2002 8.863 4.2002 9.05856C4.2002 9.25412 4.27057 9.42428 4.40873 9.56245L7.03698 12.1907C7.10439 12.2581 7.17948 12.3107 7.26242 12.3462C7.34548 12.3818 7.43386 12.3992 7.52634 12.3992C7.61883 12.3992 7.7072 12.3818 7.79027 12.3462Z" fill="#D3D7DB"/>
</svg>
