<svg viewBox="0 0 640 512" xmlns="http://www.w3.org/2000/svg">
 <!--! Font Awesome Pro 6.1.1 by @fontawesome - https://fontawesome.com License - https://fontawesome.com/license (Commercial License) Copyright 2022 Fonticons, Inc. -->
  <path d="m413.6,182c-10.28,-8.334 -25.41,-6.867 -33.75,3.402c-8.406,10.24 -6.906,25.35 3.375,33.74c11.275,9.258 17.775,22.658 17.775,35.958c0,14.17 -6.5,27.59 -17.81,36.83c-10.28,8.396 -11.78,23.5 -3.375,33.74c4.719,5.806 11.62,8.802 18.56,8.802c5.344,0 10.75,-1.779 15.19,-5.399c22.535,-17.573 35.435,-44.473 35.435,-73.973s-12.9,-54.7 -35.4,-73.1zm60.5,-73.8c-10.22,-8.334 -25.34,-6.898 -33.78,3.34c-8.406,10.24 -6.906,25.35 3.344,33.74c33.936,26.82 53.336,68.02 53.336,109.82s-19.44,82.1 -53.31,110.7c-10.25,8.396 -11.75,23.5 -3.344,33.74c4.75,5.775 11.62,8.771 18.56,8.771c5.375,0 10.75,-1.779 15.22,-5.431c45.074,-35.98 70.874,-89.88 70.874,-147.78s-25.8,-110.1 -70.9,-146.9zm-171.9,-73.22c-11.5,-5.181 -25.01,-3.076 -34.43,5.29l-134.97,119.83l-83.8,0c-26.51,0 -48,21.48 -48,47.96l0,95.92c0,26.48 21.49,47.96 48,47.96l83.84,0l134.9,119.8c5.96,5.26 13.56,8.06 21.26,8.06c4.438,0 8.959,-0.9314 13.16,-2.835c11.54,-5.165 18.84,-16.565 18.84,-29.065l0,-383.78c0,-12.57 -7.3,-23.99 -18.8,-29.14z"/>
</svg>